<svg xmlns="http://www.w3.org/2000/svg" viewBox="0 0 701 701"><defs><style>.cls-1{stroke:#000;}.cls-1,.cls-2,.cls-4{stroke-miterlimit:10;}.cls-2,.cls-4{stroke:#fff;}.cls-2{stroke-width:13px;}.cls-3,.cls-4{fill:#fff;}.cls-4{stroke-width:3px;}</style></defs><title>資產 11</title><g id="圖層_2" data-name="圖層 2"><g id="圖層_2-2" data-name="圖層 2"><rect class="cls-1" x="0.5" y="0.5" width="700" height="700"/><rect class="cls-2" x="30.93" y="30.93" width="639.13" height="639.13"/><path class="cls-3" d="M302.21,153.8c4.73-15.35,10-30.66,20.8-43,16.37-18.64,40.7-24.53,64.74-24,26,.56,51,7.46,68,28.23C468,130,474,149.28,477.15,168.11c1.89,11.43,2.32,23.72,3.06,35.63.28,4.59-.05,7-5,7.7-5.43.78-11,1.09-16.42,1.63l-33.54,3.31c-18.69,1.85-38.9,5.4-57.28-.15S336.16,194.6,320.64,184c-14.91-10.14-32.85-15-50.74-15.94-12.6-.63-26.48.31-38.26,5.18-12,4.94-24.53,19.27-22.72,33,1.19,9,10.9,16.37,17.77,21.53,8.77,6.58,19,10.94,29.24,14.64a298.6,298.6,0,0,0,53.19,14.26c14,2.27,28.09,2.31,41.65-2.39A129.09,129.09,0,0,0,371,245c6.75-3.75.71-14.11-6.06-10.36-12.43,6.89-25.21,12-39.62,11.73-18-.31-36.05-5.92-53.09-11.11-12-3.66-24.18-7.75-34.84-14.53a60.29,60.29,0,0,1-9.06-7c-2.47-2.28-7.07-5.57-7.62-9-1-6.23,5.53-13.4,9.88-17,4-3.3,8.18-4.52,13.36-5.68a97.86,97.86,0,0,1,46.6,1.38c19.23,5.29,32.93,18.15,48.34,30,7.47,5.76,15.21,10.87,24.23,13.87,8.72,2.9,18.13,3.78,27.27,3.74,21.11-.09,42.41-3.41,63.39-5.48L469.61,224c4.53-.45,9.41-.5,13.63-2.37,8.56-3.81,9.37-12.45,8.69-20.72-1-12.32-1.26-24.52-3.34-36.77-3.39-20-10.34-39.68-22.92-55.74C449.51,87.79,425.88,78,400.29,75.56c-27.15-2.59-56,1-77.6,18.86-14.31,11.81-22.91,28.61-28.77,45.88-1.16,3.41-2.22,6.86-3.28,10.3-2.28,7.4,9.3,10.56,11.57,3.19Z"/><path class="cls-3" d="M288.12,455.09q0,3.33-1.73,3.33H265.24q-1.73,0-1.73-3.76,0-10.85.45-32.56t.45-32.56q0-3.12-.54-3.33-.66.64-8,33.2-4.3,19.13-8.6,38.15-.6,2.47-1.49,2.9a13.29,13.29,0,0,1-2.39.11q-3.11,0-3.7-2.15Q236.45,446.6,231.2,424q-5.61-23.85-8.42-34.49a3.73,3.73,0,0,0-.54-1.18,8.44,8.44,0,0,0-.42,3.12q0,10.53.3,31.59t.3,31.59q0,3.76-1.67,3.76H200.8c-.8,0-1.29-.23-1.46-.7a7.53,7.53,0,0,1-.27-2.42q0-11.71.63-35.19t.63-35.19q0-12.46-.6-46.74-.06-8.92-.54-26.54l-.06-1.83q-.06-2.15,2.51-2.15,3.28,0,9.85-.38t9.85-.38q.66,0,1.85,4.51l17.44,68.88q1.85,7,3.11,7,.66,0,2.81-8.06,6-22.56,17.86-68,1-4.19,2.21-4.19,1.73,0,5.23.32t5.29.32a29.3,29.3,0,0,0,4.57-.54,29.5,29.5,0,0,1,4.57-.54q1.79,0,1.79,2.58,0,12.68-.51,37.88T287,384.93q0,11.71.54,35.14T288.12,455.09Z"/><path class="cls-3" d="M383.41,383.21q0,33.52-11.89,56.2-12.13,23-30.7,23t-30.64-23.21q-11.95-22.67-11.95-56T310.18,327q12.18-23.31,30.64-23.32T371.41,327Q383.41,350,383.41,383.21ZM360.77,383q0-16.12-5.44-27.4-5.67-11.82-14.51-11.82-8.42,0-14.27,12.25-5.67,11.82-5.67,27.18,0,16.44,5.32,27.4,5.61,11.5,14.63,11.5,8.42,0,14.33-12.14Q360.77,398.36,360.77,383Z"/><path class="cls-3" d="M464.85,405.66q0,27.4-3.64,37.39-6.69,18.27-33.39,18.27-12.07,0-18.58-3.33-10.39-5.37-13.5-20.52-1.55-7.41-1.55-26.43,0-4.4.18-13.11t.18-13q0-12.46-.66-37.39t-.66-37.29q0-2.58,1.25-2.58,3.64,0,11,.54t11,.54q1.49,0,1.49,2.36,0,14.18-.51,42.5T417,396.1q0,16.87,2,22.78,2.63,8.06,11,8.06,12.24,0,12.24-21.38,0-15.58-.42-46.74t-.42-46.74q0-3.33,1.49-3.33,3.52,0,10.63-.54t10.63-.54q1.73,0,1.73,2.58,0,12.36-.57,37.29t-.57,37.39q0,3.44.06,10.37T464.85,405.66Z"/><path class="cls-3" d="M501,334.1a99.49,99.49,0,0,1-3.76,26A92.33,92.33,0,0,1,488.47,382q-1.2,2.15-1.91,2.15t-1.25-1.5q-.36-.75-3.7-5.91-3-4.62-3-5.16,0,1.08,3-7.36a51.31,51.31,0,0,0,3-17.57q0-7-4.45-15.31a97.36,97.36,0,0,1-4.45-8.76q0-1.72,3-6l3.94-5.37,3.64-6.12q3-5,3.46-5,.6,0,1.73,1.5Q500.95,314.76,501,334.1Z"/><path class="cls-3" d="M152.08,590.53H144V574.85a29.61,29.61,0,0,0-.19-4.31,2.76,2.76,0,0,0-1-1.66,3.4,3.4,0,0,0-2.22-.66,4.73,4.73,0,0,0-2.72,1q-1.39,1-1.39,5.64v15.68h-8.12V574.85a19.51,19.51,0,0,0-.3-4.39,3.06,3.06,0,0,0-1.13-1.61,3.45,3.45,0,0,0-2.11-.62,3.65,3.65,0,0,0-3.12,1.36q-1,1.36-1,5.26v15.68h-7.87V562.2h7.63v4.32q1.94-4.91,7.75-4.91a7.9,7.9,0,0,1,7.61,4.91q2.29-4.91,8-4.91a9.1,9.1,0,0,1,4.69,1.15,6.68,6.68,0,0,1,2.81,3,16.86,16.86,0,0,1,.84,6.37Z"/><path class="cls-3" d="M188.33,590.53h-7.87a20.8,20.8,0,0,1-.38-4.43,11.49,11.49,0,0,1-4.12,4,10.55,10.55,0,0,1-4.66,1A8.92,8.92,0,0,1,165,589a7.46,7.46,0,0,1-2.38-5.81,8.74,8.74,0,0,1,5.85-8.43q3.07-1.28,11.21-1.89V571.2q0-4.12-4-4.12-4.26,0-4.75,4.12l-7.49-.73a8.77,8.77,0,0,1,4.44-6.85,17.23,17.23,0,0,1,8.39-2,20.11,20.11,0,0,1,5.28.67,8.73,8.73,0,0,1,3.87,2,7.06,7.06,0,0,1,1.88,2.85,19.06,19.06,0,0,1,.49,5.23v12.85A20.1,20.1,0,0,0,188.33,590.53ZM179.72,577q-8.5.87-8.5,5.3a3.89,3.89,0,0,0,.9,2.57,3.13,3.13,0,0,0,2.55,1.08,4.42,4.42,0,0,0,3.6-1.84,7.08,7.08,0,0,0,1.45-4.53Z"/><path class="cls-3" d="M218.29,571.81l9,18.72h-9l-5.74-12.84-4.77,5.65v7.18h-7.65V552.24h7.65v22.95l1.2-1.54q.76-1.07,1.28-1.71l8-9.74h7.91Z"/><path class="cls-3" d="M260,577.77H242.3q0,.76,0,1.32a6.15,6.15,0,0,0,1.57,4.57,5.15,5.15,0,0,0,3.75,1.54q4.06,0,4.88-4.46l7.35.56q-3.08,9.82-12.5,9.82a13.51,13.51,0,0,1-7-1.7,13.22,13.22,0,0,1-4.74-5,15.43,15.43,0,0,1-1.87-7.8q0-6.76,3.74-10.91a13,13,0,0,1,18.74-.29Q260,569.32,260,577.77Zm-17.73-4.85H252q-.38-5.83-4.66-5.83Q242.82,567.08,242.27,572.92Z"/><path class="cls-3" d="M313.62,552.24v38.29h-7.49V586.1q-2.78,5-7.58,5a8.28,8.28,0,0,1-7.19-3.83q-2.63-3.83-2.63-10.62,0-7.07,2.63-11.07a8.57,8.57,0,0,1,7.63-4,7.65,7.65,0,0,1,6.77,3.56V552.24Zm-7.87,21.83q0-6.68-3.94-6.68-4.7,0-4.7,9.43,0,8.39,4.4,8.39a3.78,3.78,0,0,0,3-1.52,6.54,6.54,0,0,0,1.27-4.32Z"/><path class="cls-3" d="M334,551.45v8.36H325.9v-8.36Zm0,10.74v28.33H325.9V562.2Z"/><path class="cls-3" d="M354.74,568.71v21.83h-7.9V568.71h-3.19V562.2h3.19a27.34,27.34,0,0,1,.61-6.38,6.52,6.52,0,0,1,2.87-3.56,11.14,11.14,0,0,1,6.29-1.56,26.45,26.45,0,0,1,3.76.31v6.45q-1.74-.14-2.89-.14a2.38,2.38,0,0,0-2.21.9,5.87,5.87,0,0,0-.54,2.92v1.07h5v6.51Z"/><path class="cls-3" d="M379,568.71v21.83h-7.9V568.71h-3.19V562.2h3.19a27.34,27.34,0,0,1,.61-6.38,6.52,6.52,0,0,1,2.87-3.56,11.14,11.14,0,0,1,6.29-1.56,26.45,26.45,0,0,1,3.76.31v6.45q-1.74-.14-2.89-.14a2.38,2.38,0,0,0-2.21.9,5.87,5.87,0,0,0-.54,2.92v1.07h5v6.51Z"/><path class="cls-3" d="M418.16,577.77H400.46q0,.76,0,1.32a6.15,6.15,0,0,0,1.57,4.57,5.15,5.15,0,0,0,3.75,1.54q4.06,0,4.88-4.46l7.35.56q-3.08,9.82-12.5,9.82a13.51,13.51,0,0,1-7-1.7,13.22,13.22,0,0,1-4.74-5,15.44,15.44,0,0,1-1.87-7.8q0-6.76,3.75-10.91a13,13,0,0,1,18.74-.29Q418.16,569.32,418.16,577.77Zm-17.73-4.85h9.78q-.38-5.83-4.66-5.83Q401,567.08,400.43,572.92Z"/><path class="cls-3" d="M436.73,590.53h-7.87V562.2h7.44v5.27q1.72-5.89,5.94-5.89.6,0,1.47.08v8.25a7.84,7.84,0,0,0-3.85.79,5.64,5.64,0,0,0-2.25,2.82,14.17,14.17,0,0,0-.87,5.48Z"/><path class="cls-3" d="M478.51,577.77H460.8q0,.76,0,1.32a6.15,6.15,0,0,0,1.57,4.57,5.15,5.15,0,0,0,3.75,1.54q4.06,0,4.88-4.46l7.35.56q-3.08,9.82-12.5,9.82a13.51,13.51,0,0,1-7-1.7,13.22,13.22,0,0,1-4.74-5,15.44,15.44,0,0,1-1.87-7.8q0-6.76,3.75-10.91a13,13,0,0,1,18.74-.29Q478.51,569.32,478.51,577.77Zm-17.73-4.85h9.78q-.38-5.83-4.66-5.83Q461.32,567.08,460.78,572.92Z"/><path class="cls-3" d="M513.12,590.53H505V574.63a23.43,23.43,0,0,0-.22-4,3.22,3.22,0,0,0-1.06-1.81,3.1,3.1,0,0,0-2.12-.74q-4.28,0-4.28,6.51v15.91h-8.12V562.2h7.54V567q1.88-3.42,3.7-4.41a8.21,8.21,0,0,1,4-1,9,9,0,0,1,6.32,2.17q2.4,2.18,2.4,8.54Z"/><path class="cls-3" d="M549.59,579.9a12.08,12.08,0,0,1-3.85,8.12,12.47,12.47,0,0,1-8.76,3.1,12.32,12.32,0,0,1-9.49-4q-3.66-4-3.66-10.62t3.75-10.79a12.84,12.84,0,0,1,10-4.14,11.7,11.7,0,0,1,8.35,3.11,11.53,11.53,0,0,1,3.66,7.8L542,573q-.38-5.11-4.3-5.11-4.82,0-4.82,8.14,0,5.42,1.35,6.87a4.3,4.3,0,0,0,3.28,1.46q3.76,0,4.49-4.91Z"/><path class="cls-3" d="M584.23,577.77H566.52q0,.76,0,1.32a6.15,6.15,0,0,0,1.57,4.57,5.15,5.15,0,0,0,3.75,1.54q4.06,0,4.88-4.46l7.35.56q-3.08,9.82-12.5,9.82a13.51,13.51,0,0,1-7-1.7,13.22,13.22,0,0,1-4.74-5,15.44,15.44,0,0,1-1.87-7.8q0-6.76,3.75-10.91a13,13,0,0,1,18.74-.29Q584.23,569.32,584.23,577.77Zm-17.73-4.85h9.78q-.38-5.83-4.66-5.83Q567,567.08,566.5,572.92Z"/><line class="cls-4" x1="127.77" y1="506.56" x2="573.23" y2="506.56"/></g></g></svg>